<mxfile host="Electron" modified="2023-06-20T16:21:49.766Z" agent="Mozilla/5.0 (Windows NT 10.0; Win64; x64) AppleWebKit/537.36 (KHTML, like Gecko) draw.io/21.3.7 Chrome/112.0.5615.204 Electron/24.5.0 Safari/537.36" etag="vkNhUw3c4q1h5mIfgBoF" version="21.3.7" type="device">
  <diagram id="C5RBs43oDa-KdzZeNtuy" name="Page-1">
    <mxGraphModel dx="1434" dy="836" grid="1" gridSize="10" guides="1" tooltips="1" connect="1" arrows="1" fold="1" page="1" pageScale="1" pageWidth="827" pageHeight="1169" math="0" shadow="0">
      <root>
        <mxCell id="WIyWlLk6GJQsqaUBKTNV-0" />
        <mxCell id="WIyWlLk6GJQsqaUBKTNV-1" parent="WIyWlLk6GJQsqaUBKTNV-0" />
        <mxCell id="ZypryVdnKtBdLEluvS5--11" value="" style="group" vertex="1" connectable="0" parent="WIyWlLk6GJQsqaUBKTNV-1">
          <mxGeometry x="220" y="260" width="170" height="120" as="geometry" />
        </mxCell>
        <mxCell id="ZypryVdnKtBdLEluvS5--3" value="" style="rounded=1;whiteSpace=wrap;html=1;" vertex="1" parent="ZypryVdnKtBdLEluvS5--11">
          <mxGeometry width="120" height="60" as="geometry" />
        </mxCell>
        <mxCell id="ZypryVdnKtBdLEluvS5--4" value="" style="rounded=1;whiteSpace=wrap;html=1;" vertex="1" parent="ZypryVdnKtBdLEluvS5--11">
          <mxGeometry x="10" y="20" width="120" height="60" as="geometry" />
        </mxCell>
        <mxCell id="ZypryVdnKtBdLEluvS5--5" value="" style="rounded=1;whiteSpace=wrap;html=1;" vertex="1" parent="ZypryVdnKtBdLEluvS5--11">
          <mxGeometry x="30" y="40" width="120" height="60" as="geometry" />
        </mxCell>
        <mxCell id="ZypryVdnKtBdLEluvS5--6" value="" style="rounded=1;whiteSpace=wrap;html=1;" vertex="1" parent="ZypryVdnKtBdLEluvS5--11">
          <mxGeometry x="50" y="60" width="120" height="60" as="geometry" />
        </mxCell>
        <mxCell id="WIyWlLk6GJQsqaUBKTNV-2" value="" style="rounded=0;html=1;jettySize=auto;orthogonalLoop=1;fontSize=11;endArrow=block;endFill=0;endSize=8;strokeWidth=1;shadow=0;labelBackgroundColor=none;edgeStyle=orthogonalEdgeStyle;" parent="WIyWlLk6GJQsqaUBKTNV-1" source="WIyWlLk6GJQsqaUBKTNV-3" edge="1">
          <mxGeometry relative="1" as="geometry">
            <mxPoint x="220" y="170" as="targetPoint" />
          </mxGeometry>
        </mxCell>
        <mxCell id="WIyWlLk6GJQsqaUBKTNV-3" value="extract_transform&lt;br&gt;&lt;i&gt;Initial cleaning&lt;/i&gt;" style="rounded=1;whiteSpace=wrap;html=1;fontSize=12;glass=0;strokeWidth=1;shadow=0;" parent="WIyWlLk6GJQsqaUBKTNV-1" vertex="1">
          <mxGeometry x="160" y="80" width="120" height="40" as="geometry" />
        </mxCell>
        <mxCell id="ZypryVdnKtBdLEluvS5--7" style="edgeStyle=orthogonalEdgeStyle;rounded=0;orthogonalLoop=1;jettySize=auto;html=1;exitX=0.25;exitY=1;exitDx=0;exitDy=0;entryX=0;entryY=0.5;entryDx=0;entryDy=0;" edge="1" parent="WIyWlLk6GJQsqaUBKTNV-1" source="ZypryVdnKtBdLEluvS5--0" target="ZypryVdnKtBdLEluvS5--3">
          <mxGeometry relative="1" as="geometry" />
        </mxCell>
        <mxCell id="ZypryVdnKtBdLEluvS5--8" style="edgeStyle=orthogonalEdgeStyle;rounded=0;orthogonalLoop=1;jettySize=auto;html=1;exitX=0.25;exitY=1;exitDx=0;exitDy=0;entryX=0;entryY=0.5;entryDx=0;entryDy=0;" edge="1" parent="WIyWlLk6GJQsqaUBKTNV-1" source="ZypryVdnKtBdLEluvS5--0" target="ZypryVdnKtBdLEluvS5--4">
          <mxGeometry relative="1" as="geometry" />
        </mxCell>
        <mxCell id="ZypryVdnKtBdLEluvS5--9" style="edgeStyle=orthogonalEdgeStyle;rounded=0;orthogonalLoop=1;jettySize=auto;html=1;exitX=0.25;exitY=1;exitDx=0;exitDy=0;entryX=0;entryY=0.5;entryDx=0;entryDy=0;" edge="1" parent="WIyWlLk6GJQsqaUBKTNV-1" source="ZypryVdnKtBdLEluvS5--0" target="ZypryVdnKtBdLEluvS5--5">
          <mxGeometry relative="1" as="geometry" />
        </mxCell>
        <mxCell id="ZypryVdnKtBdLEluvS5--10" style="edgeStyle=orthogonalEdgeStyle;rounded=0;orthogonalLoop=1;jettySize=auto;html=1;exitX=0.25;exitY=1;exitDx=0;exitDy=0;entryX=0;entryY=0.65;entryDx=0;entryDy=0;entryPerimeter=0;" edge="1" parent="WIyWlLk6GJQsqaUBKTNV-1" source="ZypryVdnKtBdLEluvS5--0" target="ZypryVdnKtBdLEluvS5--6">
          <mxGeometry relative="1" as="geometry" />
        </mxCell>
        <mxCell id="ZypryVdnKtBdLEluvS5--0" value="cleaned_data&lt;br&gt;&lt;i&gt;Database-like format&lt;/i&gt;" style="rounded=1;whiteSpace=wrap;html=1;fontSize=12;glass=0;strokeWidth=1;shadow=0;" vertex="1" parent="WIyWlLk6GJQsqaUBKTNV-1">
          <mxGeometry x="160" y="170" width="120" height="40" as="geometry" />
        </mxCell>
        <mxCell id="ZypryVdnKtBdLEluvS5--14" style="edgeStyle=orthogonalEdgeStyle;rounded=0;orthogonalLoop=1;jettySize=auto;html=1;exitX=0.5;exitY=1;exitDx=0;exitDy=0;entryX=-0.008;entryY=0.65;entryDx=0;entryDy=0;entryPerimeter=0;" edge="1" parent="WIyWlLk6GJQsqaUBKTNV-1" source="ZypryVdnKtBdLEluvS5--13" target="ZypryVdnKtBdLEluvS5--6">
          <mxGeometry relative="1" as="geometry">
            <Array as="points">
              <mxPoint x="70" y="230" />
              <mxPoint x="190" y="230" />
              <mxPoint x="190" y="339" />
            </Array>
          </mxGeometry>
        </mxCell>
        <mxCell id="ZypryVdnKtBdLEluvS5--13" value="common_functions&lt;br&gt;" style="rounded=1;whiteSpace=wrap;html=1;fontSize=12;glass=0;strokeWidth=1;shadow=0;" vertex="1" parent="WIyWlLk6GJQsqaUBKTNV-1">
          <mxGeometry x="10" y="80" width="120" height="40" as="geometry" />
        </mxCell>
        <mxCell id="ZypryVdnKtBdLEluvS5--12" value="Specific projects" style="text;html=1;strokeColor=none;fillColor=none;align=center;verticalAlign=middle;whiteSpace=wrap;rounded=0;" vertex="1" parent="WIyWlLk6GJQsqaUBKTNV-1">
          <mxGeometry x="255" y="230" width="110" height="30" as="geometry" />
        </mxCell>
      </root>
    </mxGraphModel>
  </diagram>
</mxfile>
